<?xml version="1.0" encoding="UTF-8"?>
<svg xmlns="http://www.w3.org/2000/svg" xmlns:xlink="http://www.w3.org/1999/xlink" width="24px" height="24px" viewBox="0 0 24 24" version="1.1">
<g id="surface1">
<path style=" stroke:none;fill-rule:nonzero;fill:rgb(0%,0%,0%);fill-opacity:1;" d="M 4.265625 0.75 C 9.421875 0.75 14.578125 0.75 19.734375 0.75 C 19.734375 2.15625 19.734375 3.5625 19.734375 4.96875 C 19.308594 4.980469 18.871094 4.925781 18.453125 5.050781 C 17.789062 5.234375 17.230469 5.769531 17.027344 6.429688 C 16.976562 6.558594 17.152344 6.582031 17.226562 6.636719 C 18.125 7.097656 18.546875 8.242188 18.214844 9.1875 C 20.144531 9.1875 22.074219 9.1875 24 9.1875 L 24 13.40625 C 21.640625 13.40625 19.28125 13.40625 16.921875 13.40625 C 16.921875 13.875 16.921875 14.34375 16.921875 14.8125 C 19.28125 14.8125 21.640625 14.8125 24 14.8125 L 24 19.03125 C 16 19.03125 8 19.03125 0 19.03125 L 0 14.8125 C 2.359375 14.8125 4.71875 14.8125 7.078125 14.8125 C 7.074219 14.300781 7.085938 13.792969 7.074219 13.285156 C 6.316406 13.011719 5.746094 12.292969 5.679688 11.488281 C 5.621094 10.910156 5.832031 10.332031 6.203125 9.890625 C 5.898438 9.519531 5.691406 9.066406 5.675781 8.582031 C 5.625 7.769531 6.101562 6.957031 6.835938 6.605469 C 6.902344 6.566406 7.023438 6.53125 6.972656 6.429688 C 6.769531 5.78125 6.230469 5.25 5.578125 5.058594 C 5.152344 4.925781 4.703125 4.980469 4.265625 4.96875 C 4.265625 3.5625 4.265625 2.15625 4.265625 0.75 M 5.671875 2.15625 C 5.675781 2.652344 5.664062 3.144531 5.675781 3.636719 C 7.027344 3.894531 8.148438 5.023438 8.410156 6.371094 C 10.800781 6.378906 13.199219 6.378906 15.589844 6.371094 C 15.847656 5.019531 16.976562 3.894531 18.324219 3.636719 C 18.335938 3.144531 18.324219 2.652344 18.328125 2.15625 C 14.109375 2.15625 9.890625 2.15625 5.671875 2.15625 M 7.613281 7.800781 C 7.269531 7.882812 7.027344 8.238281 7.082031 8.582031 C 7.128906 8.917969 7.441406 9.191406 7.78125 9.1875 C 10.59375 9.1875 13.40625 9.1875 16.21875 9.1875 C 16.613281 9.195312 16.957031 8.824219 16.917969 8.433594 C 16.898438 8.078125 16.574219 7.777344 16.222656 7.78125 C 13.425781 7.78125 10.625 7.78125 7.828125 7.78125 C 7.753906 7.78125 7.683594 7.785156 7.613281 7.800781 M 7.078125 11.296875 C 7.070312 11.671875 7.40625 12.003906 7.78125 12 C 12.71875 12 17.652344 12 22.59375 12 C 22.59375 11.53125 22.59375 11.0625 22.59375 10.59375 C 17.652344 10.59375 12.71875 10.59375 7.78125 10.59375 C 7.40625 10.589844 7.070312 10.921875 7.078125 11.296875 M 8.484375 13.40625 C 8.484375 13.875 8.484375 14.34375 8.484375 14.8125 C 10.828125 14.8125 13.171875 14.8125 15.515625 14.8125 C 15.515625 14.34375 15.515625 13.875 15.515625 13.40625 C 13.171875 13.40625 10.828125 13.40625 8.484375 13.40625 M 1.40625 16.21875 C 1.40625 16.6875 1.40625 17.15625 1.40625 17.625 C 8.46875 17.625 15.53125 17.625 22.59375 17.625 C 22.59375 17.15625 22.59375 16.6875 22.59375 16.21875 C 15.53125 16.21875 8.46875 16.21875 1.40625 16.21875 Z M 1.40625 16.21875 "/>
<path style=" stroke:none;fill-rule:nonzero;fill:rgb(0%,0%,0%);fill-opacity:1;" d="M 1.933594 21.011719 C 2.75 20.1875 4.175781 20.113281 5.074219 20.847656 C 5.308594 21.019531 5.480469 21.257812 5.652344 21.488281 C 5.941406 21.855469 6.503906 21.949219 6.902344 21.710938 C 7.152344 21.578125 7.277344 21.308594 7.464844 21.109375 C 7.921875 20.605469 8.601562 20.316406 9.28125 20.339844 C 10.027344 20.347656 10.753906 20.738281 11.175781 21.355469 C 11.324219 21.574219 11.535156 21.753906 11.792969 21.816406 C 12.238281 21.9375 12.699219 21.695312 12.921875 21.3125 C 13.667969 20.242188 15.320312 20.019531 16.324219 20.847656 C 16.558594 21.019531 16.730469 21.257812 16.90625 21.488281 C 17.183594 21.847656 17.726562 21.945312 18.121094 21.730469 C 18.441406 21.566406 18.570312 21.210938 18.835938 20.988281 C 19.714844 20.128906 21.257812 20.128906 22.148438 20.980469 C 22.414062 21.199219 22.542969 21.558594 22.855469 21.722656 C 23.207031 21.914062 23.621094 21.824219 24 21.84375 L 24 23.25 C 23.597656 23.242188 23.191406 23.28125 22.796875 23.1875 C 22.289062 23.070312 21.820312 22.785156 21.492188 22.382812 C 21.371094 22.238281 21.277344 22.066406 21.121094 21.949219 C 20.769531 21.679688 20.234375 21.675781 19.878906 21.941406 C 19.707031 22.074219 19.605469 22.265625 19.46875 22.425781 C 18.933594 23.050781 18.0625 23.363281 17.25 23.214844 C 16.578125 23.105469 15.988281 22.683594 15.617188 22.121094 C 15.242188 21.597656 14.363281 21.636719 14.027344 22.183594 C 13.578125 22.863281 12.769531 23.285156 11.953125 23.246094 C 11.183594 23.230469 10.453125 22.808594 10.035156 22.171875 C 9.769531 21.753906 9.171875 21.625 8.746094 21.867188 C 8.53125 21.976562 8.40625 22.1875 8.261719 22.371094 C 7.734375 23.035156 6.832031 23.367188 6 23.214844 C 5.34375 23.105469 4.753906 22.699219 4.386719 22.144531 C 4.03125 21.613281 3.148438 21.617188 2.796875 22.152344 C 2.417969 22.734375 1.78125 23.128906 1.09375 23.222656 C 0.730469 23.269531 0.363281 23.242188 0 23.25 L 0 21.84375 C 0.421875 21.820312 0.878906 21.921875 1.269531 21.707031 C 1.566406 21.558594 1.691406 21.226562 1.933594 21.011719 Z M 1.933594 21.011719 "/>
</g>
</svg>
