<?xml version="1.0" encoding="UTF-8"?>
<svg xmlns="http://www.w3.org/2000/svg" xmlns:xlink="http://www.w3.org/1999/xlink" width="24px" height="23px" viewBox="0 0 23 23" version="1.1">
<defs>
<filter id="alpha" filterUnits="objectBoundingBox" x="0%" y="0%" width="100%" height="100%">
  <feColorMatrix type="matrix" in="SourceGraphic" values="0 0 0 0 1 0 0 0 0 1 0 0 0 0 1 0 0 0 1 0"/>
</filter>
<mask id="mask0">
  <g filter="url(#alpha)">
<rect x="0" y="0" width="23" height="23" style="fill:rgb(0%,0%,0%);fill-opacity:0.870588;stroke:none;"/>
  </g>
</mask>
<clipPath id="clip1">
  <rect x="0" y="0" width="23" height="23"/>
</clipPath>
<g id="surface5" clip-path="url(#clip1)">
<path style=" stroke:none;fill-rule:nonzero;fill:rgb(20.784314%,41.176471%,46.27451%);fill-opacity:1;" d="M 21.851562 4.359375 C 22.304688 4.511719 22.5 3.992188 22.785156 3.746094 C 22.675781 3.953125 22.601562 4.199219 22.410156 4.347656 C 22.179688 4.519531 21.898438 4.605469 21.636719 4.714844 C 21.707031 4.597656 21.777344 4.476562 21.851562 4.359375 Z M 21.851562 4.359375 "/>
</g>
<mask id="mask1">
  <g filter="url(#alpha)">
<rect x="0" y="0" width="23" height="23" style="fill:rgb(0%,0%,0%);fill-opacity:0.870588;stroke:none;"/>
  </g>
</mask>
<clipPath id="clip2">
  <rect x="0" y="0" width="23" height="23"/>
</clipPath>
<g id="surface8" clip-path="url(#clip2)">
<path style=" stroke:none;fill-rule:nonzero;fill:rgb(20.784314%,41.176471%,46.27451%);fill-opacity:1;" d="M 17.792969 7.695312 C 17.921875 7.761719 17.921875 7.835938 17.789062 7.917969 C 17.660156 7.855469 17.660156 7.78125 17.792969 7.695312 Z M 17.792969 7.695312 "/>
</g>
<mask id="mask2">
  <g filter="url(#alpha)">
<rect x="0" y="0" width="23" height="23" style="fill:rgb(0%,0%,0%);fill-opacity:0.870588;stroke:none;"/>
  </g>
</mask>
<clipPath id="clip3">
  <rect x="0" y="0" width="23" height="23"/>
</clipPath>
<g id="surface11" clip-path="url(#clip3)">
<path style=" stroke:none;fill-rule:nonzero;fill:rgb(20.784314%,41.176471%,46.27451%);fill-opacity:1;" d="M 10.410156 8.933594 C 10.527344 8.714844 10.65625 8.402344 10.929688 8.378906 C 11.285156 8.523438 11.460938 8.878906 11.414062 9.257812 C 11.585938 9.296875 11.753906 9.335938 11.925781 9.378906 C 11.714844 9.367188 11.507812 9.363281 11.296875 9.363281 C 11.457031 9.644531 11.738281 9.550781 11.988281 9.484375 C 11.992188 9.613281 12 9.742188 12.007812 9.871094 C 12.105469 9.9375 12.203125 10.007812 12.300781 10.078125 C 12.488281 10.703125 13.210938 10.863281 13.445312 11.464844 C 13.390625 11.453125 13.277344 11.429688 13.222656 11.421875 C 13.101562 11.128906 12.886719 10.898438 12.589844 10.789062 C 12.660156 11.054688 12.828125 11.269531 13.023438 11.457031 C 12.984375 11.453125 12.90625 11.449219 12.871094 11.445312 C 12.464844 11.066406 12.328125 10.515625 12.132812 10.011719 C 12.109375 10.375 12.074219 10.738281 11.972656 11.089844 C 11.933594 11.0625 11.851562 11.011719 11.8125 10.984375 L 11.964844 11 C 11.953125 10.53125 11.933594 10.0625 11.917969 9.59375 C 11.734375 9.617188 11.546875 9.636719 11.363281 9.660156 C 11.351562 9.8125 11.335938 9.96875 11.324219 10.121094 C 11.304688 9.9375 11.277344 9.757812 11.253906 9.574219 C 11.203125 9.773438 11.15625 9.972656 11.09375 10.167969 C 11.109375 9.972656 11.109375 9.773438 11.117188 9.578125 C 11.042969 9.492188 10.96875 9.402344 10.894531 9.316406 C 11.0625 9.277344 11.226562 9.238281 11.394531 9.195312 C 11.191406 8.988281 10.988281 8.78125 10.792969 8.566406 C 10.671875 8.710938 10.550781 8.851562 10.429688 8.992188 C 10.300781 8.992188 10.109375 8.910156 10.035156 9.066406 C 9.910156 9.285156 10.183594 9.414062 10.285156 9.574219 C 10.097656 9.757812 9.867188 9.886719 9.636719 10.003906 C 9.765625 9.824219 9.902344 9.648438 10.039062 9.476562 C 9.941406 9.46875 9.75 9.460938 9.652344 9.457031 C 9.707031 9.316406 9.757812 9.171875 9.8125 9.03125 C 9.742188 9 9.597656 8.941406 9.527344 8.910156 C 9.816406 8.816406 10.117188 8.882812 10.410156 8.933594 Z M 10.410156 8.933594 "/>
</g>
<mask id="mask3">
  <g filter="url(#alpha)">
<rect x="0" y="0" width="23" height="23" style="fill:rgb(0%,0%,0%);fill-opacity:0.870588;stroke:none;"/>
  </g>
</mask>
<clipPath id="clip4">
  <rect x="0" y="0" width="23" height="23"/>
</clipPath>
<g id="surface14" clip-path="url(#clip4)">
<path style=" stroke:none;fill-rule:nonzero;fill:rgb(20.784314%,41.176471%,46.27451%);fill-opacity:1;" d="M 9.074219 9.324219 C 9.078125 9.320312 9.078125 9.316406 9.078125 9.3125 C 9.078125 9.316406 9.078125 9.320312 9.074219 9.324219 Z M 9.074219 9.324219 "/>
</g>
<mask id="mask4">
  <g filter="url(#alpha)">
<rect x="0" y="0" width="23" height="23" style="fill:rgb(0%,0%,0%);fill-opacity:0.870588;stroke:none;"/>
  </g>
</mask>
<clipPath id="clip5">
  <rect x="0" y="0" width="23" height="23"/>
</clipPath>
<g id="surface17" clip-path="url(#clip5)">
<path style=" stroke:none;fill-rule:nonzero;fill:rgb(20.784314%,41.176471%,46.27451%);fill-opacity:1;" d="M 8.988281 10.152344 C 8.988281 10.15625 8.992188 10.164062 8.996094 10.167969 C 8.992188 10.164062 8.988281 10.15625 8.988281 10.152344 Z M 8.988281 10.152344 "/>
</g>
<mask id="mask5">
  <g filter="url(#alpha)">
<rect x="0" y="0" width="23" height="23" style="fill:rgb(0%,0%,0%);fill-opacity:0.870588;stroke:none;"/>
  </g>
</mask>
<clipPath id="clip6">
  <rect x="0" y="0" width="23" height="23"/>
</clipPath>
<g id="surface20" clip-path="url(#clip6)">
<path style=" stroke:none;fill-rule:nonzero;fill:rgb(20.784314%,41.176471%,46.27451%);fill-opacity:1;" d="M 12.023438 11.652344 C 12.277344 11.792969 12.523438 11.949219 12.773438 12.097656 C 12.773438 12.019531 12.773438 11.859375 12.769531 11.78125 C 12.933594 12.0625 13.089844 12.394531 13.433594 12.46875 C 13.554688 12.707031 13.703125 12.933594 13.855469 13.148438 L 13.886719 13.214844 C 13.84375 13.21875 13.753906 13.222656 13.710938 13.226562 C 13.695312 13.296875 13.664062 13.4375 13.644531 13.503906 C 13.511719 13.230469 13.582031 12.742188 13.1875 12.714844 C 13.105469 12.894531 13.027344 13.078125 12.941406 13.257812 L 12.875 13.195312 C 12.789062 12.867188 12.621094 12.578125 12.410156 12.320312 C 12.253906 12.117188 12.128906 11.890625 12.023438 11.652344 M 12.558594 12.144531 C 12.640625 12.371094 12.757812 12.585938 12.914062 12.773438 C 12.980469 12.488281 12.917969 12.140625 12.558594 12.144531 Z M 12.558594 12.144531 "/>
</g>
<mask id="mask6">
  <g filter="url(#alpha)">
<rect x="0" y="0" width="23" height="23" style="fill:rgb(0%,0%,0%);fill-opacity:0.870588;stroke:none;"/>
  </g>
</mask>
<clipPath id="clip7">
  <rect x="0" y="0" width="23" height="23"/>
</clipPath>
<g id="surface23" clip-path="url(#clip7)">
<path style=" stroke:none;fill-rule:nonzero;fill:rgb(20.784314%,41.176471%,46.27451%);fill-opacity:1;" d="M 10.398438 14.21875 C 10.546875 14.28125 10.660156 14.402344 10.699219 14.566406 C 10.53125 14.660156 10.296875 14.382812 10.398438 14.21875 Z M 10.398438 14.21875 "/>
</g>
<mask id="mask7">
  <g filter="url(#alpha)">
<rect x="0" y="0" width="23" height="23" style="fill:rgb(0%,0%,0%);fill-opacity:0.870588;stroke:none;"/>
  </g>
</mask>
<clipPath id="clip8">
  <rect x="0" y="0" width="23" height="23"/>
</clipPath>
<g id="surface26" clip-path="url(#clip8)">
<path style=" stroke:none;fill-rule:nonzero;fill:rgb(20.784314%,41.176471%,46.27451%);fill-opacity:1;" d="M 10.785156 14.75 L 10.867188 14.816406 C 11.070312 15.046875 11.375 14.988281 11.640625 14.941406 C 11.503906 14.992188 11.371094 15.054688 11.238281 15.121094 C 11.230469 15.148438 11.214844 15.210938 11.207031 15.242188 C 11.175781 15.398438 11.148438 15.554688 11.128906 15.714844 C 10.949219 15.417969 10.871094 15.082031 10.785156 14.75 Z M 10.785156 14.75 "/>
</g>
<mask id="mask8">
  <g filter="url(#alpha)">
<rect x="0" y="0" width="23" height="23" style="fill:rgb(0%,0%,0%);fill-opacity:0.870588;stroke:none;"/>
  </g>
</mask>
<clipPath id="clip9">
  <rect x="0" y="0" width="23" height="23"/>
</clipPath>
<g id="surface29" clip-path="url(#clip9)">
<path style=" stroke:none;fill-rule:nonzero;fill:rgb(20.784314%,41.176471%,46.27451%);fill-opacity:1;" d="M 12.246094 15.59375 C 12.414062 15.324219 12.589844 15.0625 12.75 14.789062 C 12.832031 15.011719 12.917969 15.230469 12.988281 15.457031 C 12.832031 15.445312 12.640625 15.378906 12.511719 15.519531 C 12.472656 15.546875 12.394531 15.59375 12.355469 15.621094 C 12.558594 15.683594 12.789062 15.714844 12.949219 15.875 C 12.863281 15.933594 12.773438 15.988281 12.6875 16.042969 C 12.652344 16.0625 12.585938 16.105469 12.550781 16.125 C 12.445312 16.269531 12.359375 16.425781 12.285156 16.589844 C 12.242188 16.542969 12.15625 16.449219 12.113281 16.398438 C 12.375 16.210938 12.371094 15.863281 12.246094 15.59375 Z M 12.246094 15.59375 "/>
</g>
<mask id="mask9">
  <g filter="url(#alpha)">
<rect x="0" y="0" width="23" height="23" style="fill:rgb(0%,0%,0%);fill-opacity:0.870588;stroke:none;"/>
  </g>
</mask>
<clipPath id="clip10">
  <rect x="0" y="0" width="23" height="23"/>
</clipPath>
<g id="surface32" clip-path="url(#clip10)">
<path style=" stroke:none;fill-rule:nonzero;fill:rgb(20.784314%,41.176471%,46.27451%);fill-opacity:1;" d="M 13.839844 15.445312 C 13.960938 15.402344 14.078125 15.355469 14.199219 15.308594 C 14.199219 15.492188 14.199219 15.671875 14.203125 15.851562 C 14.316406 15.683594 14.417969 15.507812 14.519531 15.332031 C 14.527344 15.445312 14.546875 15.667969 14.554688 15.78125 C 14.789062 15.714844 15.070312 15.5 15.269531 15.753906 C 15.058594 15.820312 14.847656 15.886719 14.664062 16.019531 C 14.566406 16.027344 14.464844 16.03125 14.363281 16.035156 C 14.300781 15.996094 14.234375 15.960938 14.164062 15.929688 C 14.1875 16.042969 14.234375 16.269531 14.257812 16.386719 C 14.109375 16.414062 13.960938 16.441406 13.8125 16.464844 C 13.742188 16.671875 13.671875 16.875 13.574219 17.066406 C 13.671875 16.730469 13.78125 16.398438 13.960938 16.097656 C 13.894531 16.03125 13.832031 15.960938 13.769531 15.894531 C 13.792969 15.746094 13.816406 15.59375 13.839844 15.445312 Z M 13.839844 15.445312 "/>
</g>
<mask id="mask10">
  <g filter="url(#alpha)">
<rect x="0" y="0" width="23" height="23" style="fill:rgb(0%,0%,0%);fill-opacity:0.870588;stroke:none;"/>
  </g>
</mask>
<clipPath id="clip11">
  <rect x="0" y="0" width="23" height="23"/>
</clipPath>
<g id="surface35" clip-path="url(#clip11)">
<path style=" stroke:none;fill-rule:nonzero;fill:rgb(20.784314%,41.176471%,46.27451%);fill-opacity:1;" d="M 11.796875 18.179688 C 11.984375 18.304688 11.96875 18.542969 12 18.738281 C 12.105469 18.875 12.210938 19.007812 12.316406 19.144531 C 12.449219 18.882812 12.59375 18.613281 12.855469 18.46875 C 12.703125 18.878906 12.652344 19.449219 12.1875 19.613281 C 12.167969 19.671875 12.132812 19.785156 12.113281 19.84375 C 12.011719 19.875 11.910156 19.90625 11.808594 19.941406 L 11.796875 19.863281 C 11.773438 19.660156 11.746094 19.457031 11.707031 19.253906 L 11.707031 19.246094 C 11.867188 19.210938 12.027344 19.160156 12.183594 19.117188 C 12.109375 18.871094 11.921875 19.035156 11.769531 19.097656 C 11.773438 18.792969 11.773438 18.484375 11.796875 18.179688 Z M 11.796875 18.179688 "/>
</g>
<mask id="mask11">
  <g filter="url(#alpha)">
<rect x="0" y="0" width="23" height="23" style="fill:rgb(0%,0%,0%);fill-opacity:0.870588;stroke:none;"/>
  </g>
</mask>
<clipPath id="clip12">
  <rect x="0" y="0" width="23" height="23"/>
</clipPath>
<g id="surface38" clip-path="url(#clip12)">
<path style=" stroke:none;fill-rule:nonzero;fill:rgb(20.784314%,41.176471%,46.27451%);fill-opacity:1;" d="M 8.976562 19.152344 C 9.019531 19.144531 9.101562 19.125 9.140625 19.117188 C 9.332031 19.226562 9.074219 19.441406 9.015625 19.566406 C 8.957031 19.4375 8.921875 19.289062 8.976562 19.152344 Z M 8.976562 19.152344 "/>
</g>
</defs>
<g id="surface1">
<path style=" stroke:none;fill-rule:nonzero;fill:rgb(49.019608%,69.411765%,74.509804%);fill-opacity:1;" d="M 22.042969 2.214844 C 22.351562 1.867188 22.789062 1.640625 23 1.207031 L 23 1.667969 C 22.703125 1.867188 22.46875 2.144531 22.214844 2.394531 C 22.171875 2.351562 22.085938 2.261719 22.042969 2.214844 Z M 22.042969 2.214844 "/>
<path style=" stroke:none;fill-rule:nonzero;fill:rgb(49.019608%,69.411765%,74.509804%);fill-opacity:1;" d="M 19.09375 5.917969 C 19.113281 5.890625 19.148438 5.828125 19.167969 5.796875 C 19.285156 5.832031 19.394531 5.878906 19.496094 5.945312 C 19.503906 6.242188 19.195312 6.035156 19.09375 5.917969 Z M 19.09375 5.917969 "/>
<path style=" stroke:none;fill-rule:nonzero;fill:rgb(49.019608%,69.411765%,74.509804%);fill-opacity:1;" d="M 19.339844 8.039062 C 19.378906 8.0625 19.460938 8.113281 19.5 8.136719 C 19.472656 8.28125 19.5 8.46875 19.355469 8.554688 C 19.082031 8.769531 18.824219 9.019531 18.503906 9.164062 C 18.820312 8.808594 18.871094 8.238281 19.339844 8.039062 Z M 19.339844 8.039062 "/>
<path style=" stroke:none;fill-rule:nonzero;fill:rgb(49.019608%,69.411765%,74.509804%);fill-opacity:1;" d="M 17.804688 9.179688 C 18.007812 9.207031 17.832031 9.609375 17.664062 9.550781 C 17.582031 9.425781 17.699219 9.246094 17.804688 9.179688 Z M 17.804688 9.179688 "/>
<path style=" stroke:none;fill-rule:nonzero;fill:rgb(49.019608%,69.411765%,74.509804%);fill-opacity:1;" d="M 13.546875 11.703125 C 13.707031 11.933594 13.808594 12.195312 13.894531 12.460938 L 13.890625 12.476562 C 13.878906 12.515625 13.851562 12.59375 13.839844 12.632812 C 13.839844 12.808594 13.84375 12.980469 13.855469 13.148438 C 13.703125 12.933594 13.554688 12.707031 13.433594 12.46875 C 13.484375 12.449219 13.589844 12.417969 13.640625 12.402344 C 13.625 12.164062 13.59375 11.933594 13.546875 11.703125 Z M 13.546875 11.703125 "/>
<path style=" stroke:none;fill-rule:nonzero;fill:rgb(49.019608%,69.411765%,74.509804%);fill-opacity:1;" d="M 11.527344 12.472656 C 11.621094 12.351562 11.714844 12.226562 11.804688 12.097656 C 12.007812 12.171875 12.210938 12.246094 12.410156 12.320312 C 12.621094 12.578125 12.789062 12.867188 12.875 13.195312 C 12.554688 12.933594 12.238281 12.664062 11.878906 12.464844 C 11.558594 12.527344 11.25 12.632812 10.921875 12.65625 C 10.839844 12.578125 10.753906 12.5 10.671875 12.421875 C 10.910156 12.449219 11.144531 12.472656 11.382812 12.496094 C 11.445312 12.402344 11.507812 12.308594 11.566406 12.210938 Z M 11.527344 12.472656 "/>
<path style=" stroke:none;fill-rule:nonzero;fill:rgb(49.019608%,69.411765%,74.509804%);fill-opacity:1;" d="M 12.558594 12.144531 C 12.917969 12.140625 12.980469 12.488281 12.914062 12.773438 C 12.757812 12.585938 12.640625 12.371094 12.558594 12.144531 Z M 12.558594 12.144531 "/>
<path style=" stroke:none;fill-rule:nonzero;fill:rgb(49.019608%,69.411765%,74.509804%);fill-opacity:1;" d="M 11.640625 14.941406 C 11.804688 14.890625 11.96875 14.84375 12.132812 14.789062 C 12.167969 14.945312 12.207031 15.097656 12.230469 15.257812 C 12.039062 15.371094 11.835938 15.457031 11.644531 15.5625 C 11.632812 15.535156 11.605469 15.476562 11.59375 15.445312 C 11.464844 15.375 11.335938 15.308594 11.207031 15.242188 C 11.214844 15.210938 11.230469 15.148438 11.238281 15.121094 C 11.371094 15.054688 11.503906 14.992188 11.640625 14.941406 Z M 11.640625 14.941406 "/>
<path style=" stroke:none;fill-rule:nonzero;fill:rgb(49.019608%,69.411765%,74.509804%);fill-opacity:1;" d="M 11.792969 17.574219 C 11.773438 17.253906 11.882812 16.949219 11.976562 16.648438 C 12.046875 16.707031 12.1875 16.816406 12.257812 16.875 C 12.296875 16.949219 12.332031 17.027344 12.371094 17.109375 C 12.417969 17.285156 12.433594 17.46875 12.402344 17.648438 C 12.363281 17.460938 12.324219 17.269531 12.289062 17.078125 C 12.074219 17.238281 11.988281 17.496094 11.90625 17.746094 C 11.878906 17.703125 11.820312 17.617188 11.792969 17.574219 Z M 11.792969 17.574219 "/>
<path style=" stroke:none;fill-rule:nonzero;fill:rgb(49.019608%,69.411765%,74.509804%);fill-opacity:1;" d="M 8.6875 17.496094 C 8.71875 17.496094 8.785156 17.488281 8.816406 17.488281 C 8.769531 17.664062 8.648438 17.800781 8.511719 17.914062 L 8.472656 17.929688 C 8.429688 17.75 8.515625 17.558594 8.6875 17.496094 Z M 8.6875 17.496094 "/>
<path style=" stroke:none;fill-rule:nonzero;fill:rgb(49.019608%,69.411765%,74.509804%);fill-opacity:1;" d="M 6.101562 18.78125 C 6.183594 18.761719 6.347656 18.71875 6.429688 18.703125 C 6.203125 19.113281 5.695312 19.238281 5.289062 19.386719 C 5.527344 19.136719 5.871094 19.035156 6.101562 18.78125 Z M 6.101562 18.78125 "/>
<path style=" stroke:none;fill-rule:nonzero;fill:rgb(49.019608%,69.411765%,74.509804%);fill-opacity:1;" d="M 10.742188 19.027344 L 10.78125 19.03125 C 11.066406 19.222656 11.1875 19.546875 11.238281 19.878906 C 11.285156 19.894531 11.375 19.925781 11.425781 19.9375 C 10.902344 20.027344 10.359375 19.875 9.894531 19.636719 C 10.207031 19.484375 10.730469 19.496094 10.742188 19.027344 Z M 10.742188 19.027344 "/>
<path style=" stroke:none;fill-rule:nonzero;fill:rgb(65.882353%,80.784314%,83.921569%);fill-opacity:1;" d="M 22.191406 3.523438 C 22.472656 3.546875 22.738281 3.472656 23 3.382812 L 23 3.527344 C 22.925781 3.597656 22.855469 3.671875 22.785156 3.746094 C 22.5 3.992188 22.304688 4.511719 21.851562 4.359375 C 21.953125 4.222656 22.082031 4.109375 22.214844 4.007812 C 22.207031 3.84375 22.199219 3.683594 22.191406 3.523438 Z M 22.191406 3.523438 "/>
<path style=" stroke:none;fill-rule:nonzero;fill:rgb(65.882353%,80.784314%,83.921569%);fill-opacity:1;" d="M 19.496094 5.945312 L 19.5625 5.992188 C 19.570312 6.054688 19.589844 6.183594 19.597656 6.25 L 19.601562 6.273438 C 19.390625 6.539062 19.140625 6.78125 18.808594 6.867188 C 18.480469 6.933594 18.351562 7.304688 18.039062 7.394531 C 18.28125 7.105469 18.613281 6.902344 18.828125 6.585938 C 18.945312 6.375 18.996094 6.136719 19.09375 5.917969 C 19.195312 6.035156 19.503906 6.242188 19.496094 5.945312 Z M 19.496094 5.945312 "/>
<path style=" stroke:none;fill-rule:nonzero;fill:rgb(65.882353%,80.784314%,83.921569%);fill-opacity:1;" d="M 11.363281 9.660156 C 11.546875 9.636719 11.734375 9.617188 11.917969 9.59375 C 11.933594 10.0625 11.953125 10.53125 11.964844 11 L 11.8125 10.984375 C 11.644531 10.898438 11.472656 10.8125 11.300781 10.734375 C 11.335938 11.042969 11.710938 11.023438 11.921875 11.148438 C 11.785156 11.496094 11.675781 11.855469 11.566406 12.210938 C 11.507812 12.308594 11.445312 12.402344 11.382812 12.496094 C 11.144531 12.472656 10.910156 12.449219 10.671875 12.421875 C 10.578125 12.128906 10.535156 11.824219 10.484375 11.519531 C 10.570312 11.46875 10.660156 11.421875 10.746094 11.371094 C 10.929688 11.265625 11.109375 11.15625 11.289062 11.042969 C 11.261719 11.003906 11.207031 10.929688 11.183594 10.890625 C 11.261719 10.644531 11.3125 10.382812 11.324219 10.121094 C 11.335938 9.96875 11.351562 9.8125 11.363281 9.660156 Z M 11.363281 9.660156 "/>
<path style=" stroke:none;fill-rule:nonzero;fill:rgb(65.882353%,80.784314%,83.921569%);fill-opacity:1;" d="M 12.132812 10.011719 C 12.328125 10.515625 12.464844 11.066406 12.871094 11.445312 C 12.785156 11.5 12.699219 11.550781 12.613281 11.601562 C 12.597656 11.597656 12.5625 11.597656 12.546875 11.59375 C 12.371094 11.410156 12.179688 11.234375 11.972656 11.089844 C 12.074219 10.738281 12.109375 10.375 12.132812 10.011719 Z M 12.132812 10.011719 "/>
<path style=" stroke:none;fill-rule:nonzero;fill:rgb(65.882353%,80.784314%,83.921569%);fill-opacity:1;" d="M 15.972656 10.625 C 16.160156 10.457031 16.359375 10.304688 16.566406 10.167969 C 16.546875 10.566406 16.289062 10.863281 16.101562 11.1875 C 16.046875 11.296875 15.960938 11.367188 15.847656 11.398438 C 15.804688 11.386719 15.722656 11.367188 15.679688 11.355469 C 15.777344 11.292969 15.875 11.230469 15.976562 11.171875 C 15.976562 10.988281 15.976562 10.804688 15.972656 10.625 Z M 15.972656 10.625 "/>
<path style=" stroke:none;fill-rule:nonzero;fill:rgb(65.882353%,80.784314%,83.921569%);fill-opacity:1;" d="M 9.761719 12.203125 C 9.78125 12.042969 9.964844 12.039062 10.070312 11.964844 C 10.261719 12.101562 10.496094 12.273438 10.4375 12.550781 C 10.207031 12.449219 9.972656 12.34375 9.761719 12.203125 Z M 9.761719 12.203125 "/>
<path style=" stroke:none;fill-rule:nonzero;fill:rgb(65.882353%,80.784314%,83.921569%);fill-opacity:1;" d="M 12.132812 14.789062 C 12.277344 14.738281 12.421875 14.671875 12.558594 14.597656 L 12.664062 14.542969 C 12.683594 14.605469 12.730469 14.726562 12.75 14.789062 C 12.589844 15.0625 12.414062 15.324219 12.246094 15.59375 C 12.066406 15.824219 12.058594 16.121094 12.113281 16.398438 C 12.15625 16.449219 12.242188 16.542969 12.285156 16.589844 C 12.277344 16.660156 12.265625 16.800781 12.257812 16.875 C 12.1875 16.816406 12.046875 16.707031 11.976562 16.648438 C 11.882812 16.949219 11.773438 17.253906 11.792969 17.574219 C 11.804688 17.777344 11.824219 17.984375 11.847656 18.1875 C 12.082031 18.113281 12.3125 18.035156 12.535156 17.929688 C 12.53125 18 12.527344 18.148438 12.527344 18.222656 C 12.480469 18.1875 12.386719 18.117188 12.339844 18.085938 C 12.195312 18.285156 12.066406 18.496094 12 18.738281 C 11.96875 18.542969 11.984375 18.304688 11.796875 18.179688 C 11.773438 18.484375 11.773438 18.792969 11.769531 19.097656 C 11.921875 19.035156 12.109375 18.871094 12.183594 19.117188 C 12.027344 19.160156 11.867188 19.210938 11.707031 19.246094 C 11.664062 19.234375 11.582031 19.210938 11.542969 19.199219 C 11.574219 19.183594 11.644531 19.152344 11.679688 19.136719 C 11.796875 18.957031 11.742188 18.734375 11.75 18.53125 C 11.726562 18.03125 11.765625 17.527344 11.765625 17.027344 C 11.726562 17.011719 11.648438 16.972656 11.609375 16.957031 L 11.71875 16.925781 L 11.71875 16.890625 C 11.769531 16.449219 11.742188 16 11.644531 15.5625 C 11.835938 15.457031 12.039062 15.371094 12.230469 15.257812 C 12.207031 15.097656 12.167969 14.945312 12.132812 14.789062 Z M 12.132812 14.789062 "/>
<path style=" stroke:none;fill-rule:nonzero;fill:rgb(65.882353%,80.784314%,83.921569%);fill-opacity:1;" d="M 7.445312 16.082031 C 7.75 16.019531 8.042969 15.90625 8.339844 15.808594 C 8.445312 16.152344 8.539062 16.542969 8.816406 16.789062 C 9.527344 16.542969 10.277344 16.492188 11.023438 16.460938 C 10.640625 16.570312 10.15625 16.402344 9.859375 16.726562 C 9.609375 16.964844 9.320312 17.160156 9.035156 17.347656 C 9.070312 17.359375 9.140625 17.378906 9.175781 17.390625 C 9.054688 17.425781 8.9375 17.457031 8.816406 17.488281 C 8.785156 17.488281 8.71875 17.496094 8.6875 17.496094 C 8.6875 17.433594 8.683594 17.300781 8.679688 17.234375 C 8.289062 17.441406 7.925781 17.707031 7.589844 18 C 7.796875 18.015625 8 18.035156 8.207031 18.039062 C 7.851562 18.085938 7.480469 18.035156 7.148438 18.214844 C 7.414062 18.347656 7.683594 18.476562 7.960938 18.582031 C 7.46875 18.96875 6.832031 19.160156 6.457031 19.699219 C 6.644531 19.695312 6.835938 19.695312 7.019531 19.667969 C 7.019531 19.613281 7.011719 19.503906 7.007812 19.449219 C 7.410156 19.171875 7.808594 18.894531 8.242188 18.675781 C 8.171875 18.84375 8.097656 19.011719 8.023438 19.179688 C 8.238281 19.0625 8.441406 18.933594 8.632812 18.78125 C 8.574219 18.75 8.457031 18.683594 8.398438 18.648438 C 8.640625 18.667969 8.859375 18.777344 9.0625 18.898438 C 8.695312 19.023438 8.386719 19.277344 8.023438 19.40625 C 7.964844 19.355469 7.847656 19.253906 7.789062 19.203125 C 7.578125 19.308594 7.367188 19.417969 7.15625 19.53125 C 7.371094 19.605469 7.589844 19.675781 7.804688 19.746094 C 7.90625 19.6875 8.011719 19.632812 8.113281 19.574219 C 8.339844 19.648438 8.566406 19.722656 8.792969 19.796875 C 8.796875 19.757812 8.800781 19.675781 8.804688 19.636719 C 8.609375 19.621094 8.414062 19.605469 8.21875 19.582031 C 8.4375 19.378906 8.703125 19.25 8.976562 19.152344 C 8.921875 19.289062 8.957031 19.4375 9.015625 19.566406 C 8.988281 19.695312 8.960938 19.824219 8.9375 19.957031 C 8.4375 19.792969 7.914062 19.746094 7.390625 19.777344 C 6.675781 19.664062 5.953125 19.824219 5.234375 19.769531 C 4.648438 19.722656 4.0625 19.90625 3.484375 19.773438 C 3.628906 19.648438 3.789062 19.539062 3.90625 19.386719 C 4.347656 18.710938 4.644531 17.933594 5.199219 17.34375 C 5.421875 17.097656 5.660156 16.871094 5.917969 16.664062 C 5.929688 17.21875 5.359375 17.4375 5.035156 17.78125 C 5.109375 17.898438 5.179688 18.015625 5.253906 18.132812 C 5.109375 18.105469 4.960938 18.078125 4.816406 18.050781 C 4.945312 18.214844 5.054688 18.417969 5.25 18.5 C 5.730469 18.257812 6.144531 17.902344 6.5625 17.566406 C 6.851562 17.339844 7.183594 17.171875 7.441406 16.898438 C 7.621094 16.714844 7.808594 16.523438 8.070312 16.46875 C 8 16.613281 7.949219 16.78125 7.820312 16.890625 C 7.382812 17.289062 6.851562 17.554688 6.414062 17.949219 C 6.097656 18.234375 5.699219 18.410156 5.402344 18.722656 C 5.648438 18.648438 5.890625 18.566406 6.136719 18.492188 C 5.972656 18.730469 5.734375 18.886719 5.484375 19.015625 C 5.125 19.195312 4.855469 19.539062 4.460938 19.640625 C 4.644531 19.269531 5 19.058594 5.339844 18.863281 C 5.160156 18.667969 4.960938 18.492188 4.746094 18.332031 C 4.613281 18.570312 4.480469 18.8125 4.347656 19.050781 C 4.378906 19.15625 4.410156 19.261719 4.441406 19.363281 C 4.347656 19.335938 4.25 19.308594 4.15625 19.277344 C 4.160156 19.351562 4.167969 19.421875 4.171875 19.496094 C 4.082031 19.589844 3.917969 19.636719 3.898438 19.78125 C 4.214844 19.773438 4.527344 19.6875 4.835938 19.617188 C 5.28125 19.664062 5.726562 19.609375 6.164062 19.542969 C 6.363281 19.527344 6.492188 19.347656 6.636719 19.234375 C 6.925781 18.960938 7.28125 18.777344 7.609375 18.558594 C 7.140625 18.558594 6.835938 18.988281 6.402344 19.117188 C 6.585938 18.746094 6.929688 18.519531 7.28125 18.339844 C 7.011719 18.417969 6.742188 18.492188 6.46875 18.5625 C 6.804688 18.25 7.242188 18.089844 7.570312 17.765625 C 7.925781 17.425781 8.328125 17.148438 8.722656 16.859375 C 8.453125 16.917969 8.195312 17 7.933594 17.078125 C 8.039062 16.847656 8.246094 16.707031 8.457031 16.589844 C 8.394531 16.410156 8.332031 16.226562 8.269531 16.046875 C 7.933594 16.398438 7.550781 16.707031 7.105469 16.898438 C 7.292969 16.585938 7.570312 16.347656 7.824219 16.097656 C 7.648438 16.15625 7.46875 16.21875 7.292969 16.289062 C 7.332031 16.234375 7.40625 16.132812 7.445312 16.082031 Z M 7.445312 16.082031 "/>
<path style=" stroke:none;fill-rule:nonzero;fill:rgb(65.882353%,80.784314%,83.921569%);fill-opacity:1;" d="M 12.371094 17.109375 C 12.398438 17.054688 12.453125 16.953125 12.480469 16.902344 C 12.523438 17.140625 12.558594 17.382812 12.546875 17.628906 C 12.335938 17.667969 12.121094 17.722656 11.90625 17.746094 C 11.988281 17.496094 12.074219 17.238281 12.289062 17.078125 C 12.324219 17.269531 12.363281 17.460938 12.402344 17.648438 C 12.433594 17.46875 12.417969 17.285156 12.371094 17.109375 Z M 12.371094 17.109375 "/>
<path style=" stroke:none;fill-rule:nonzero;fill:rgb(65.882353%,80.784314%,83.921569%);fill-opacity:1;" d="M 11.539062 19.730469 C 11.558594 19.558594 11.632812 19.40625 11.707031 19.253906 C 11.746094 19.457031 11.773438 19.660156 11.796875 19.863281 C 11.710938 19.824219 11.625 19.777344 11.539062 19.730469 Z M 11.539062 19.730469 "/>
<use xlink:href="#surface5" mask="url(#mask0)"/>
<use xlink:href="#surface8" mask="url(#mask1)"/>
<use xlink:href="#surface11" mask="url(#mask2)"/>
<use xlink:href="#surface14" mask="url(#mask3)"/>
<use xlink:href="#surface17" mask="url(#mask4)"/>
<use xlink:href="#surface20" mask="url(#mask5)"/>
<use xlink:href="#surface23" mask="url(#mask6)"/>
<use xlink:href="#surface26" mask="url(#mask7)"/>
<use xlink:href="#surface29" mask="url(#mask8)"/>
<use xlink:href="#surface32" mask="url(#mask9)"/>
<use xlink:href="#surface35" mask="url(#mask10)"/>
<use xlink:href="#surface38" mask="url(#mask11)"/>
<path style=" stroke:none;fill-rule:nonzero;fill:rgb(88.627451%,94.117647%,96.078431%);fill-opacity:1;" d="M 21.183594 5.089844 C 21.363281 5.082031 21.328125 5.378906 21.171875 5.382812 C 21.011719 5.371094 21.039062 5.101562 21.183594 5.089844 Z M 21.183594 5.089844 "/>
<path style=" stroke:none;fill-rule:nonzero;fill:rgb(88.627451%,94.117647%,96.078431%);fill-opacity:1;" d="M 10.429688 8.992188 C 10.550781 8.851562 10.671875 8.710938 10.792969 8.566406 C 10.988281 8.78125 11.191406 8.988281 11.394531 9.195312 C 11.226562 9.238281 11.0625 9.277344 10.894531 9.316406 C 10.96875 9.402344 11.042969 9.492188 11.117188 9.578125 C 11.109375 9.773438 11.109375 9.972656 11.09375 10.167969 C 10.960938 10.375 10.8125 10.5625 10.671875 10.761719 C 10.820312 10.65625 10.96875 10.546875 11.121094 10.445312 C 11.070312 10.746094 10.835938 11.25 10.492188 11.160156 C 10.402344 10.996094 10.421875 10.804688 10.40625 10.628906 C 10.503906 10.523438 10.597656 10.414062 10.6875 10.300781 C 10.839844 9.867188 10.800781 9.296875 10.429688 8.992188 Z M 10.429688 8.992188 "/>
<path style=" stroke:none;fill-rule:nonzero;fill:rgb(88.627451%,94.117647%,96.078431%);fill-opacity:1;" d="M 12.589844 10.789062 C 12.886719 10.898438 13.101562 11.128906 13.222656 11.421875 C 13.277344 11.429688 13.390625 11.453125 13.445312 11.464844 C 13.46875 11.523438 13.523438 11.640625 13.546875 11.703125 C 13.59375 11.933594 13.625 12.164062 13.640625 12.402344 C 13.589844 12.417969 13.484375 12.449219 13.433594 12.46875 C 13.089844 12.394531 12.933594 12.0625 12.769531 11.78125 C 12.773438 11.859375 12.773438 12.019531 12.773438 12.097656 C 12.523438 11.949219 12.277344 11.792969 12.023438 11.652344 C 12.128906 11.890625 12.253906 12.117188 12.410156 12.320312 C 12.210938 12.246094 12.007812 12.171875 11.804688 12.097656 C 11.863281 11.941406 11.917969 11.785156 11.972656 11.628906 C 12.164062 11.609375 12.355469 11.589844 12.546875 11.59375 C 12.5625 11.597656 12.597656 11.597656 12.613281 11.601562 C 12.699219 11.550781 12.785156 11.5 12.871094 11.445312 C 12.90625 11.449219 12.984375 11.453125 13.023438 11.457031 C 12.828125 11.269531 12.660156 11.054688 12.589844 10.789062 Z M 12.589844 10.789062 "/>
<path style=" stroke:none;fill-rule:nonzero;fill:rgb(88.627451%,94.117647%,96.078431%);fill-opacity:1;" d="M 14.089844 12.851562 C 14.15625 12.964844 14.21875 13.089844 14.34375 13.148438 C 14.378906 13.210938 14.445312 13.335938 14.480469 13.398438 C 14.558594 13.558594 14.636719 13.722656 14.714844 13.886719 C 14.554688 13.890625 14.394531 13.894531 14.234375 13.894531 C 14.292969 13.761719 14.347656 13.625 14.40625 13.492188 C 14.363281 13.449219 14.277344 13.363281 14.234375 13.320312 C 14.207031 13.289062 14.148438 13.230469 14.121094 13.199219 C 14.113281 13.113281 14.097656 12.9375 14.089844 12.851562 Z M 14.089844 12.851562 "/>
<path style=" stroke:none;fill-rule:nonzero;fill:rgb(88.627451%,94.117647%,96.078431%);fill-opacity:1;" d="M 13.71875 13.703125 C 13.867188 13.601562 14.019531 13.507812 14.171875 13.414062 C 14.140625 13.566406 14.113281 13.730469 14.003906 13.851562 C 14.1875 14.113281 14.117188 14.425781 14.109375 14.722656 C 14.199219 14.882812 14.335938 15.007812 14.457031 15.144531 C 14.582031 15.066406 14.707031 14.988281 14.832031 14.910156 C 14.839844 15.054688 14.847656 15.195312 14.855469 15.339844 C 14.871094 15.339844 14.910156 15.335938 14.925781 15.335938 C 14.957031 15.007812 14.933594 14.644531 15.125 14.359375 C 15.175781 14.226562 15.324219 14.117188 15.3125 13.96875 C 15.066406 14.027344 14.9375 14.285156 14.753906 14.441406 C 14.871094 14.15625 15.105469 13.925781 15.152344 13.613281 C 15.1875 13.710938 15.246094 13.789062 15.324219 13.851562 C 15.359375 13.792969 15.425781 13.671875 15.460938 13.609375 C 15.597656 13.992188 15.667969 14.394531 15.703125 14.796875 C 15.625 15.109375 15.519531 15.414062 15.386719 15.707031 C 15.359375 15.71875 15.300781 15.742188 15.269531 15.753906 C 15.070312 15.5 14.789062 15.714844 14.554688 15.78125 C 14.546875 15.667969 14.527344 15.445312 14.519531 15.332031 C 14.417969 15.507812 14.316406 15.683594 14.203125 15.851562 C 14.199219 15.671875 14.199219 15.492188 14.199219 15.308594 C 14.078125 15.355469 13.960938 15.402344 13.839844 15.445312 C 13.816406 15.59375 13.792969 15.746094 13.769531 15.894531 C 13.832031 15.960938 13.894531 16.03125 13.960938 16.097656 C 13.78125 16.398438 13.671875 16.730469 13.574219 17.066406 C 13.460938 17.339844 13.304688 17.601562 13.246094 17.894531 C 13.148438 18.019531 13.046875 18.144531 12.949219 18.265625 L 12.960938 18.140625 C 12.828125 18.230469 12.703125 18.328125 12.570312 18.414062 L 12.527344 18.222656 C 12.527344 18.148438 12.53125 18 12.535156 17.929688 C 12.539062 17.851562 12.546875 17.703125 12.546875 17.628906 C 12.558594 17.382812 12.523438 17.140625 12.480469 16.902344 C 12.636719 16.6875 12.859375 16.546875 13.082031 16.417969 C 13.183594 16.734375 13.011719 17.042969 12.902344 17.332031 C 12.949219 17.335938 13.046875 17.347656 13.097656 17.351562 C 12.992188 16.921875 13.324219 16.59375 13.507812 16.242188 C 13.394531 16.257812 13.285156 16.277344 13.171875 16.28125 C 13.265625 16.085938 13.363281 15.890625 13.46875 15.695312 C 13.375 15.726562 13.285156 15.757812 13.191406 15.789062 C 13.164062 15.726562 13.105469 15.601562 13.078125 15.539062 C 12.902344 15.550781 12.710938 15.65625 12.550781 15.542969 L 12.511719 15.519531 C 12.640625 15.378906 12.832031 15.445312 12.988281 15.457031 C 13.320312 15.617188 13.6875 15.417969 13.789062 15.066406 C 13.804688 14.613281 13.816406 14.148438 13.71875 13.703125 Z M 13.71875 13.703125 "/>
<path style=" stroke:none;fill-rule:nonzero;fill:rgb(88.627451%,94.117647%,96.078431%);fill-opacity:1;" d="M 7.105469 16.898438 C 7.550781 16.707031 7.933594 16.398438 8.269531 16.046875 C 8.332031 16.226562 8.394531 16.410156 8.457031 16.589844 C 8.246094 16.707031 8.039062 16.847656 7.933594 17.078125 C 8.195312 17 8.453125 16.917969 8.722656 16.859375 C 8.328125 17.148438 7.925781 17.425781 7.570312 17.765625 C 7.242188 18.089844 6.804688 18.25 6.46875 18.5625 C 6.742188 18.492188 7.011719 18.417969 7.28125 18.339844 C 6.929688 18.519531 6.585938 18.746094 6.402344 19.117188 C 6.835938 18.988281 7.140625 18.558594 7.609375 18.558594 C 7.28125 18.777344 6.925781 18.960938 6.636719 19.234375 C 6.492188 19.347656 6.363281 19.527344 6.164062 19.542969 C 5.726562 19.609375 5.28125 19.664062 4.835938 19.617188 C 4.527344 19.6875 4.214844 19.773438 3.898438 19.78125 C 3.917969 19.636719 4.082031 19.589844 4.171875 19.496094 C 4.167969 19.421875 4.160156 19.351562 4.15625 19.277344 C 4.25 19.308594 4.347656 19.335938 4.441406 19.363281 C 4.410156 19.261719 4.378906 19.15625 4.347656 19.050781 C 4.480469 18.8125 4.613281 18.570312 4.746094 18.332031 C 4.960938 18.492188 5.160156 18.667969 5.339844 18.863281 C 5 19.058594 4.644531 19.269531 4.460938 19.640625 C 4.855469 19.539062 5.125 19.195312 5.484375 19.015625 C 5.734375 18.886719 5.972656 18.730469 6.136719 18.492188 C 5.890625 18.566406 5.648438 18.648438 5.402344 18.722656 C 5.699219 18.410156 6.097656 18.234375 6.414062 17.949219 C 6.851562 17.554688 7.382812 17.289062 7.820312 16.890625 C 7.949219 16.78125 8 16.613281 8.070312 16.46875 C 7.808594 16.523438 7.621094 16.714844 7.441406 16.898438 C 7.183594 17.171875 6.851562 17.339844 6.5625 17.566406 C 6.144531 17.902344 5.730469 18.257812 5.25 18.5 C 5.054688 18.417969 4.945312 18.214844 4.816406 18.050781 C 4.960938 18.078125 5.109375 18.105469 5.253906 18.132812 C 5.179688 18.015625 5.109375 17.898438 5.035156 17.78125 C 5.359375 17.4375 5.929688 17.21875 5.917969 16.664062 C 5.660156 16.871094 5.421875 17.097656 5.199219 17.34375 C 4.644531 17.933594 4.347656 18.710938 3.90625 19.386719 C 3.789062 19.539062 3.628906 19.648438 3.484375 19.773438 C 3.175781 19.644531 2.839844 19.683594 2.519531 19.628906 C 2.507812 19.476562 2.476562 19.304688 2.578125 19.175781 C 2.792969 18.859375 2.886719 18.457031 3.179688 18.203125 C 3.582031 18.21875 3.957031 17.960938 4.046875 17.546875 C 4.183594 16.878906 4.863281 16.605469 5.300781 16.167969 C 5.429688 16.207031 5.558594 16.242188 5.691406 16.277344 C 5.835938 16.421875 5.996094 16.550781 6.175781 16.648438 C 6.089844 16.722656 6.042969 16.816406 6.035156 16.929688 C 6.175781 16.9375 6.402344 16.867188 6.347656 16.675781 C 6.6875 16.617188 6.996094 16.457031 7.292969 16.289062 C 7.46875 16.21875 7.648438 16.15625 7.824219 16.097656 C 7.570312 16.347656 7.292969 16.585938 7.105469 16.898438 M 5.085938 16.582031 C 5.160156 17.105469 4.660156 17.40625 4.402344 17.78125 C 3.984375 18.355469 3.578125 18.933594 3.15625 19.503906 C 3.460938 19.300781 3.640625 18.972656 3.851562 18.683594 C 4.332031 17.945312 4.972656 17.339844 5.445312 16.59375 C 5.324219 16.589844 5.207031 16.585938 5.085938 16.582031 M 6.175781 18.433594 C 6.625 18.113281 7.140625 17.863281 7.523438 17.457031 C 7 17.644531 6.554688 18.023438 6.175781 18.433594 M 2.71875 19.566406 C 3.101562 19.265625 3.3125 18.789062 3.589844 18.394531 C 3.238281 18.726562 2.96875 19.148438 2.71875 19.566406 M 6.101562 18.78125 C 5.871094 19.035156 5.527344 19.136719 5.289062 19.386719 C 5.695312 19.238281 6.203125 19.113281 6.429688 18.703125 C 6.347656 18.71875 6.183594 18.761719 6.101562 18.78125 Z M 6.101562 18.78125 "/>
<path style=" stroke:none;fill-rule:nonzero;fill:rgb(88.627451%,94.117647%,96.078431%);fill-opacity:1;" d="M 9.175781 17.390625 C 9.328125 17.351562 9.476562 17.308594 9.628906 17.261719 C 9.609375 17.375 9.589844 17.488281 9.570312 17.605469 C 9.214844 17.703125 8.855469 17.78125 8.511719 17.914062 C 8.648438 17.800781 8.769531 17.664062 8.816406 17.488281 C 8.9375 17.457031 9.054688 17.425781 9.175781 17.390625 Z M 9.175781 17.390625 "/>
<path style=" stroke:none;fill-rule:nonzero;fill:rgb(88.627451%,94.117647%,96.078431%);fill-opacity:1;" d="M 6.457031 19.699219 C 6.832031 19.160156 7.46875 18.96875 7.960938 18.582031 C 8.105469 18.605469 8.253906 18.625 8.398438 18.648438 C 8.457031 18.683594 8.574219 18.75 8.632812 18.78125 C 8.441406 18.933594 8.238281 19.0625 8.023438 19.179688 C 8.097656 19.011719 8.171875 18.84375 8.242188 18.675781 C 7.808594 18.894531 7.410156 19.171875 7.007812 19.449219 C 7.011719 19.503906 7.019531 19.613281 7.019531 19.667969 C 6.835938 19.695312 6.644531 19.695312 6.457031 19.699219 Z M 6.457031 19.699219 "/>
<path style=" stroke:none;fill-rule:nonzero;fill:rgb(88.627451%,94.117647%,96.078431%);fill-opacity:1;" d="M 8.023438 19.40625 C 8.386719 19.277344 8.695312 19.023438 9.0625 18.898438 C 9.273438 19.074219 9.542969 19.042969 9.792969 19.027344 C 9.792969 19.148438 9.785156 19.394531 9.785156 19.519531 C 10.015625 19.390625 10.21875 19.222656 10.402344 19.03125 C 10.488281 19.027344 10.65625 19.027344 10.742188 19.027344 C 10.730469 19.496094 10.207031 19.484375 9.894531 19.636719 C 9.726562 19.660156 9.675781 19.84375 9.589844 19.964844 C 9.371094 19.960938 9.152344 19.960938 8.9375 19.957031 C 8.960938 19.824219 8.988281 19.695312 9.015625 19.566406 C 9.074219 19.441406 9.332031 19.226562 9.140625 19.117188 C 9.101562 19.125 9.019531 19.144531 8.976562 19.152344 C 8.703125 19.25 8.4375 19.378906 8.21875 19.582031 C 8.414062 19.605469 8.609375 19.621094 8.804688 19.636719 C 8.800781 19.675781 8.796875 19.757812 8.792969 19.796875 C 8.566406 19.722656 8.339844 19.648438 8.113281 19.574219 C 8.011719 19.632812 7.90625 19.6875 7.804688 19.746094 C 7.589844 19.675781 7.371094 19.605469 7.15625 19.53125 C 7.367188 19.417969 7.578125 19.308594 7.789062 19.203125 C 7.847656 19.253906 7.964844 19.355469 8.023438 19.40625 M 9.234375 19.503906 C 9.382812 19.582031 9.542969 19.625 9.710938 19.628906 C 9.71875 19.433594 9.726562 19.242188 9.734375 19.046875 C 9.476562 19.0625 9.386719 19.339844 9.234375 19.503906 Z M 9.234375 19.503906 "/>
<path style=" stroke:none;fill-rule:nonzero;fill:rgb(32.156863%,56.470588%,62.745098%);fill-opacity:1;" d="M 19.167969 5.796875 C 19.390625 5.640625 19.667969 5.710938 19.917969 5.714844 C 19.871094 5.925781 19.753906 6.105469 19.597656 6.25 C 19.589844 6.183594 19.570312 6.054688 19.5625 5.992188 L 19.496094 5.945312 C 19.394531 5.878906 19.285156 5.832031 19.167969 5.796875 Z M 19.167969 5.796875 "/>
<path style=" stroke:none;fill-rule:nonzero;fill:rgb(32.156863%,56.470588%,62.745098%);fill-opacity:1;" d="M 16.582031 10.082031 C 16.71875 10.125 16.769531 10.257812 16.695312 10.382812 C 16.566406 10.691406 16.457031 11.082031 16.101562 11.1875 C 16.289062 10.863281 16.546875 10.566406 16.566406 10.167969 Z M 16.582031 10.082031 "/>
<path style=" stroke:none;fill-rule:nonzero;fill:rgb(32.156863%,56.470588%,62.745098%);fill-opacity:1;" d="M 15.542969 11.414062 C 15.578125 11.398438 15.644531 11.371094 15.679688 11.355469 C 15.722656 11.367188 15.804688 11.386719 15.847656 11.398438 L 15.875 11.441406 C 15.855469 11.703125 15.40625 11.703125 15.542969 11.414062 Z M 15.542969 11.414062 "/>
<path style=" stroke:none;fill-rule:nonzero;fill:rgb(32.156863%,56.470588%,62.745098%);fill-opacity:1;" d="M 15.679688 13.007812 C 15.808594 12.808594 15.964844 12.601562 16.226562 12.652344 C 16.273438 12.980469 16.101562 13.285156 15.984375 13.578125 C 15.929688 13.988281 15.882812 14.421875 15.703125 14.796875 C 15.667969 14.394531 15.597656 13.992188 15.460938 13.609375 C 15.449219 13.523438 15.421875 13.347656 15.410156 13.257812 C 15.628906 13.203125 15.699219 13.539062 15.847656 13.648438 C 15.929688 13.421875 16.027344 13.203125 16.117188 12.980469 C 16.007812 12.988281 15.789062 13 15.679688 13.007812 Z M 15.679688 13.007812 "/>
<path style=" stroke:none;fill-rule:nonzero;fill:rgb(32.156863%,56.470588%,62.745098%);fill-opacity:1;" d="M 10.769531 12.851562 C 11.015625 13.179688 11.421875 13.242188 11.796875 13.265625 C 11.773438 13.3125 11.722656 13.414062 11.699219 13.464844 C 11.511719 13.394531 11.332031 13.320312 11.148438 13.25 C 11.203125 13.589844 11.25 13.929688 11.273438 14.269531 C 11.230469 14.40625 11.183594 14.539062 11.128906 14.667969 C 11.097656 14.6875 11.042969 14.71875 11.011719 14.734375 C 11.050781 14.574219 11.070312 14.40625 11.082031 14.238281 L 11.226562 14.3125 C 11.207031 13.976562 11.210938 13.597656 10.929688 13.371094 C 10.929688 13.550781 10.941406 13.730469 10.960938 13.910156 C 10.863281 13.5625 10.828125 13.207031 10.769531 12.851562 Z M 10.769531 12.851562 "/>
<path style=" stroke:none;fill-rule:nonzero;fill:rgb(32.156863%,56.470588%,62.745098%);fill-opacity:1;" d="M 14.480469 13.398438 C 14.488281 13.285156 14.484375 13.175781 14.484375 13.0625 C 14.832031 13.007812 15.003906 13.359375 15.152344 13.613281 C 15.105469 13.925781 14.871094 14.15625 14.753906 14.441406 C 14.9375 14.285156 15.066406 14.027344 15.3125 13.96875 C 15.324219 14.117188 15.175781 14.226562 15.125 14.359375 C 14.933594 14.644531 14.957031 15.007812 14.925781 15.335938 C 14.910156 15.335938 14.871094 15.339844 14.855469 15.339844 C 14.847656 15.195312 14.839844 15.054688 14.832031 14.910156 C 14.707031 14.988281 14.582031 15.066406 14.457031 15.144531 C 14.335938 15.007812 14.199219 14.882812 14.109375 14.722656 C 14.117188 14.425781 14.1875 14.113281 14.003906 13.851562 C 14.113281 13.730469 14.140625 13.566406 14.171875 13.414062 L 14.234375 13.320312 C 14.277344 13.363281 14.363281 13.449219 14.40625 13.492188 C 14.347656 13.625 14.292969 13.761719 14.234375 13.894531 C 14.394531 13.894531 14.554688 13.890625 14.714844 13.886719 C 14.636719 13.722656 14.558594 13.558594 14.480469 13.398438 M 14.398438 14.042969 C 14.296875 14.128906 14.289062 14.378906 14.449219 14.398438 C 14.664062 14.378906 14.621094 13.914062 14.398438 14.042969 Z M 14.398438 14.042969 "/>
<path style=" stroke:none;fill-rule:nonzero;fill:rgb(32.156863%,56.470588%,62.745098%);fill-opacity:1;" d="M 11.207031 15.242188 C 11.335938 15.308594 11.464844 15.375 11.59375 15.445312 C 11.519531 15.671875 11.433594 15.898438 11.328125 16.113281 C 11.257812 15.980469 11.179688 15.855469 11.128906 15.714844 C 11.148438 15.554688 11.175781 15.398438 11.207031 15.242188 Z M 11.207031 15.242188 "/>
<path style=" stroke:none;fill-rule:nonzero;fill:rgb(32.156863%,56.470588%,62.745098%);fill-opacity:1;" d="M 11.332031 16.125 C 11.457031 16.382812 11.589844 16.636719 11.71875 16.890625 L 11.71875 16.925781 L 11.609375 16.957031 C 11.214844 17.046875 10.832031 17.1875 10.441406 17.285156 C 10.59375 17.109375 10.738281 16.921875 10.878906 16.734375 C 10.628906 16.78125 10.378906 16.832031 10.128906 16.894531 C 9.988281 17.050781 9.835938 17.210938 9.628906 17.261719 C 9.476562 17.308594 9.328125 17.351562 9.175781 17.390625 C 9.140625 17.378906 9.070312 17.359375 9.035156 17.347656 C 9.320312 17.160156 9.609375 16.964844 9.859375 16.726562 C 10.15625 16.402344 10.640625 16.570312 11.023438 16.460938 C 11.207031 16.4375 11.445312 16.367188 11.332031 16.125 Z M 11.332031 16.125 "/>
<path style=" stroke:none;fill-rule:nonzero;fill:rgb(32.156863%,56.470588%,62.745098%);fill-opacity:1;" d="M 14.441406 16.375 C 14.585938 16.261719 14.730469 16.144531 14.878906 16.03125 C 14.941406 16.078125 15.070312 16.175781 15.136719 16.222656 C 15.058594 16.324219 14.996094 16.445312 14.886719 16.515625 C 14.738281 16.480469 14.589844 16.425781 14.441406 16.375 Z M 14.441406 16.375 "/>
<path style=" stroke:none;fill-rule:nonzero;fill:rgb(32.156863%,56.470588%,62.745098%);fill-opacity:1;" d="M 5.085938 16.582031 C 5.207031 16.585938 5.324219 16.589844 5.445312 16.59375 C 4.972656 17.339844 4.332031 17.945312 3.851562 18.683594 C 3.640625 18.972656 3.460938 19.300781 3.15625 19.503906 C 3.578125 18.933594 3.984375 18.355469 4.402344 17.78125 C 4.660156 17.40625 5.160156 17.105469 5.085938 16.582031 Z M 5.085938 16.582031 "/>
<path style=" stroke:none;fill-rule:nonzero;fill:rgb(32.156863%,56.470588%,62.745098%);fill-opacity:1;" d="M 6.175781 16.648438 C 6.21875 16.652344 6.304688 16.667969 6.347656 16.675781 C 6.402344 16.867188 6.175781 16.9375 6.035156 16.929688 C 6.042969 16.816406 6.089844 16.722656 6.175781 16.648438 Z M 6.175781 16.648438 "/>
<path style=" stroke:none;fill-rule:nonzero;fill:rgb(32.156863%,56.470588%,62.745098%);fill-opacity:1;" d="M 6.175781 18.433594 C 6.554688 18.023438 7 17.644531 7.523438 17.457031 C 7.140625 17.863281 6.625 18.113281 6.175781 18.433594 Z M 6.175781 18.433594 "/>
<path style=" stroke:none;fill-rule:nonzero;fill:rgb(32.156863%,56.470588%,62.745098%);fill-opacity:1;" d="M 2.71875 19.566406 C 2.96875 19.148438 3.238281 18.726562 3.589844 18.394531 C 3.3125 18.789062 3.101562 19.265625 2.71875 19.566406 Z M 2.71875 19.566406 "/>
<path style=" stroke:none;fill-rule:nonzero;fill:rgb(32.156863%,56.470588%,62.745098%);fill-opacity:1;" d="M 9.792969 19.027344 C 9.996094 19.019531 10.199219 19.023438 10.402344 19.03125 C 10.21875 19.222656 10.015625 19.390625 9.785156 19.519531 C 9.785156 19.394531 9.792969 19.148438 9.792969 19.027344 Z M 9.792969 19.027344 "/>
<path style=" stroke:none;fill-rule:nonzero;fill:rgb(32.156863%,56.470588%,62.745098%);fill-opacity:1;" d="M 10.78125 19.03125 C 11.039062 19.0625 11.292969 19.125 11.542969 19.199219 C 11.582031 19.210938 11.664062 19.234375 11.707031 19.246094 L 11.707031 19.253906 C 11.632812 19.40625 11.558594 19.558594 11.539062 19.730469 C 11.511719 19.78125 11.453125 19.886719 11.425781 19.9375 C 11.375 19.925781 11.285156 19.894531 11.238281 19.878906 C 11.1875 19.546875 11.066406 19.222656 10.78125 19.03125 Z M 10.78125 19.03125 "/>
<path style=" stroke:none;fill-rule:nonzero;fill:rgb(32.156863%,56.470588%,62.745098%);fill-opacity:1;" d="M 9.234375 19.503906 C 9.386719 19.339844 9.476562 19.0625 9.734375 19.046875 C 9.726562 19.242188 9.71875 19.433594 9.710938 19.628906 C 9.542969 19.625 9.382812 19.582031 9.234375 19.503906 Z M 9.234375 19.503906 "/>
<path style=" stroke:none;fill-rule:nonzero;fill:rgb(4.705882%,25.490196%,30.588235%);fill-opacity:1;" d="M 9.269531 9.183594 C 9.253906 9.011719 9.328125 8.953125 9.492188 9.007812 C 9.460938 9.125 9.386719 9.179688 9.269531 9.183594 Z M 9.269531 9.183594 "/>
<path style=" stroke:none;fill-rule:nonzero;fill:rgb(4.705882%,25.490196%,30.588235%);fill-opacity:1;" d="M 11.296875 9.363281 C 11.507812 9.363281 11.714844 9.367188 11.925781 9.378906 C 11.960938 9.382812 12.03125 9.386719 12.066406 9.386719 C 12.15625 9.613281 12.25 9.839844 12.300781 10.078125 C 12.203125 10.007812 12.105469 9.9375 12.007812 9.871094 C 12 9.742188 11.992188 9.613281 11.988281 9.484375 C 11.738281 9.550781 11.457031 9.644531 11.296875 9.363281 Z M 11.296875 9.363281 "/>
<path style=" stroke:none;fill-rule:nonzero;fill:rgb(4.705882%,25.490196%,30.588235%);fill-opacity:1;" d="M 8.917969 9.996094 C 8.714844 9.9375 8.84375 9.488281 9.039062 9.503906 C 9.011719 9.671875 8.988281 9.839844 8.917969 9.996094 Z M 8.917969 9.996094 "/>
<path style=" stroke:none;fill-rule:nonzero;fill:rgb(4.705882%,25.490196%,30.588235%);fill-opacity:1;" d="M 11.09375 10.167969 C 11.15625 9.972656 11.203125 9.773438 11.253906 9.574219 C 11.277344 9.757812 11.304688 9.9375 11.324219 10.121094 C 11.3125 10.382812 11.261719 10.644531 11.183594 10.890625 C 11.207031 10.929688 11.261719 11.003906 11.289062 11.042969 C 11.109375 11.15625 10.929688 11.265625 10.746094 11.371094 C 10.765625 11.332031 10.796875 11.257812 10.816406 11.21875 C 10.675781 11.246094 10.53125 11.289062 10.390625 11.246094 C 10.328125 11.175781 10.289062 11.085938 10.28125 10.980469 L 10.230469 11.097656 C 10.136719 11.035156 10.046875 10.96875 9.957031 10.902344 C 10.09375 10.777344 10.230469 10.65625 10.371094 10.535156 C 10.472656 10.453125 10.578125 10.375 10.6875 10.300781 C 10.597656 10.414062 10.503906 10.523438 10.40625 10.628906 C 10.421875 10.804688 10.402344 10.996094 10.492188 11.160156 C 10.835938 11.25 11.070312 10.746094 11.121094 10.445312 C 10.96875 10.546875 10.820312 10.65625 10.671875 10.761719 C 10.8125 10.5625 10.960938 10.375 11.09375 10.167969 Z M 11.09375 10.167969 "/>
<path style=" stroke:none;fill-rule:nonzero;fill:rgb(4.705882%,25.490196%,30.588235%);fill-opacity:1;" d="M 9.339844 10.640625 C 9.617188 10.667969 9.851562 10.796875 10.035156 11.007812 C 10.023438 11.265625 10.015625 11.523438 10.039062 11.777344 C 9.996094 11.789062 9.90625 11.808594 9.859375 11.820312 C 9.933594 11.867188 10 11.914062 10.070312 11.964844 C 9.964844 12.039062 9.78125 12.042969 9.761719 12.203125 C 9.972656 12.34375 10.207031 12.449219 10.4375 12.550781 C 10.359375 12.726562 10.289062 12.914062 10.40625 13.09375 C 10.363281 13.160156 10.324219 13.230469 10.28125 13.296875 C 10.277344 13.238281 10.265625 13.121094 10.261719 13.0625 C 10.125 13.042969 9.984375 13.015625 9.851562 12.980469 C 10 12.964844 10.148438 12.949219 10.296875 12.929688 C 10.179688 12.582031 9.859375 12.371094 9.546875 12.242188 C 9.46875 12.335938 9.390625 12.433594 9.316406 12.53125 C 9.253906 12.386719 9.261719 12.269531 9.339844 12.183594 C 9.46875 12.097656 9.597656 12.019531 9.714844 11.925781 C 9.679688 11.472656 9.527344 11.046875 9.339844 10.640625 Z M 9.339844 10.640625 "/>
<path style=" stroke:none;fill-rule:nonzero;fill:rgb(4.705882%,25.490196%,30.588235%);fill-opacity:1;" d="M 13.839844 12.632812 C 13.851562 12.59375 13.878906 12.515625 13.890625 12.476562 C 13.964844 12.59375 14.035156 12.71875 14.089844 12.851562 C 14.097656 12.9375 14.113281 13.113281 14.121094 13.199219 C 14.0625 13.203125 13.945312 13.210938 13.886719 13.214844 L 13.855469 13.148438 C 13.84375 12.980469 13.839844 12.808594 13.839844 12.632812 Z M 13.839844 12.632812 "/>
<path style=" stroke:none;fill-rule:nonzero;fill:rgb(4.705882%,25.490196%,30.588235%);fill-opacity:1;" d="M 11.796875 13.265625 C 12.085938 13.285156 12.363281 13.34375 12.640625 13.421875 C 12.324219 13.453125 12.011719 13.496094 11.699219 13.464844 C 11.722656 13.414062 11.773438 13.3125 11.796875 13.265625 Z M 11.796875 13.265625 "/>
<path style=" stroke:none;fill-rule:nonzero;fill:rgb(4.705882%,25.490196%,30.588235%);fill-opacity:1;" d="M 10.929688 13.371094 C 11.210938 13.597656 11.207031 13.976562 11.226562 14.3125 L 11.082031 14.238281 C 11.039062 14.128906 10.996094 14.019531 10.960938 13.910156 C 10.941406 13.730469 10.929688 13.550781 10.929688 13.371094 Z M 10.929688 13.371094 "/>
<path style=" stroke:none;fill-rule:nonzero;fill:rgb(4.705882%,25.490196%,30.588235%);fill-opacity:1;" d="M 11.328125 16.113281 C 11.433594 15.898438 11.519531 15.671875 11.59375 15.445312 C 11.605469 15.476562 11.632812 15.535156 11.644531 15.5625 C 11.742188 16 11.769531 16.449219 11.71875 16.890625 C 11.589844 16.636719 11.457031 16.382812 11.332031 16.125 Z M 11.328125 16.113281 "/>
<path style=" stroke:none;fill-rule:nonzero;fill:rgb(4.705882%,25.490196%,30.588235%);fill-opacity:1;" d="M 12.355469 15.621094 C 12.394531 15.59375 12.472656 15.546875 12.511719 15.519531 L 12.550781 15.542969 C 12.710938 15.65625 12.902344 15.550781 13.078125 15.539062 C 13.105469 15.601562 13.164062 15.726562 13.191406 15.789062 C 13.285156 15.757812 13.375 15.726562 13.46875 15.695312 C 13.363281 15.890625 13.265625 16.085938 13.171875 16.28125 C 13.285156 16.277344 13.394531 16.257812 13.507812 16.242188 C 13.324219 16.59375 12.992188 16.921875 13.097656 17.351562 C 13.046875 17.347656 12.949219 17.335938 12.902344 17.332031 C 13.011719 17.042969 13.183594 16.734375 13.082031 16.417969 C 12.859375 16.546875 12.636719 16.6875 12.480469 16.902344 C 12.453125 16.953125 12.398438 17.054688 12.371094 17.109375 C 12.332031 17.027344 12.296875 16.949219 12.257812 16.875 C 12.265625 16.800781 12.277344 16.660156 12.285156 16.589844 C 12.359375 16.425781 12.445312 16.269531 12.550781 16.125 C 12.585938 16.105469 12.652344 16.0625 12.6875 16.042969 C 12.640625 16.257812 12.597656 16.46875 12.5625 16.6875 C 12.824219 16.492188 12.964844 16.203125 12.949219 15.875 C 12.789062 15.714844 12.558594 15.683594 12.355469 15.621094 Z M 12.355469 15.621094 "/>
<path style=" stroke:none;fill-rule:nonzero;fill:rgb(4.705882%,25.490196%,30.588235%);fill-opacity:1;" d="M 12.113281 16.398438 C 12.058594 16.121094 12.066406 15.824219 12.246094 15.59375 C 12.371094 15.863281 12.375 16.210938 12.113281 16.398438 Z M 12.113281 16.398438 "/>
<path style=" stroke:none;fill-rule:nonzero;fill:rgb(4.705882%,25.490196%,30.588235%);fill-opacity:1;" d="M 11.792969 17.574219 C 11.820312 17.617188 11.878906 17.703125 11.90625 17.746094 C 12.121094 17.722656 12.335938 17.667969 12.546875 17.628906 C 12.546875 17.703125 12.539062 17.851562 12.535156 17.929688 C 12.3125 18.035156 12.082031 18.113281 11.847656 18.1875 C 11.824219 17.984375 11.804688 17.777344 11.792969 17.574219 Z M 11.792969 17.574219 "/>
<path style=" stroke:none;fill-rule:nonzero;fill:rgb(0.392157%,2.352941%,2.352941%);fill-opacity:1;" d="M 9.492188 9.007812 L 9.527344 8.910156 C 9.597656 8.941406 9.742188 9 9.8125 9.03125 C 9.757812 9.171875 9.707031 9.316406 9.652344 9.457031 C 9.75 9.460938 9.941406 9.46875 10.039062 9.476562 C 9.902344 9.648438 9.765625 9.824219 9.636719 10.003906 C 9.867188 9.886719 10.097656 9.757812 10.285156 9.574219 C 10.183594 9.414062 9.910156 9.285156 10.035156 9.066406 C 10.109375 8.910156 10.300781 8.992188 10.429688 8.992188 C 10.800781 9.296875 10.839844 9.867188 10.6875 10.300781 C 10.578125 10.375 10.472656 10.453125 10.371094 10.535156 C 9.984375 10.5625 9.597656 10.582031 9.207031 10.589844 C 9.15625 10.488281 9.105469 10.390625 9.054688 10.289062 L 8.996094 10.167969 C 8.992188 10.164062 8.988281 10.15625 8.988281 10.152344 L 8.917969 9.996094 C 8.988281 9.839844 9.011719 9.671875 9.039062 9.503906 L 9.074219 9.324219 C 9.078125 9.320312 9.078125 9.316406 9.078125 9.3125 L 9.148438 9.199219 L 9.269531 9.183594 C 9.386719 9.179688 9.460938 9.125 9.492188 9.007812 Z M 9.492188 9.007812 "/>
<path style=" stroke:none;fill-rule:nonzero;fill:rgb(0.392157%,2.352941%,2.352941%);fill-opacity:1;" d="M 11.921875 11.148438 C 11.710938 11.023438 11.335938 11.042969 11.300781 10.734375 C 11.472656 10.8125 11.644531 10.898438 11.8125 10.984375 C 11.851562 11.011719 11.933594 11.0625 11.972656 11.089844 C 12.179688 11.234375 12.371094 11.410156 12.546875 11.59375 C 12.355469 11.589844 12.164062 11.609375 11.972656 11.628906 C 11.917969 11.785156 11.863281 11.941406 11.804688 12.097656 C 11.714844 12.226562 11.621094 12.351562 11.527344 12.472656 L 11.566406 12.210938 C 11.675781 11.855469 11.785156 11.496094 11.921875 11.148438 Z M 11.921875 11.148438 "/>
<path style=" stroke:none;fill-rule:nonzero;fill:rgb(0.392157%,2.352941%,2.352941%);fill-opacity:1;" d="M 10.28125 10.980469 C 10.289062 11.085938 10.328125 11.175781 10.390625 11.246094 C 10.53125 11.289062 10.675781 11.246094 10.816406 11.21875 C 10.796875 11.257812 10.765625 11.332031 10.746094 11.371094 C 10.660156 11.421875 10.570312 11.46875 10.484375 11.519531 C 10.535156 11.824219 10.578125 12.128906 10.671875 12.421875 C 10.753906 12.5 10.839844 12.578125 10.921875 12.65625 C 10.65625 12.652344 10.535156 12.898438 10.40625 13.09375 C 10.289062 12.914062 10.359375 12.726562 10.4375 12.550781 C 10.496094 12.273438 10.261719 12.101562 10.070312 11.964844 C 10 11.914062 9.933594 11.867188 9.859375 11.820312 C 9.90625 11.808594 9.996094 11.789062 10.039062 11.777344 L 10.203125 11.742188 C 10.207031 11.527344 10.207031 11.3125 10.230469 11.097656 Z M 10.28125 10.980469 "/>
<path style=" stroke:none;fill-rule:nonzero;fill:rgb(0.392157%,2.352941%,2.352941%);fill-opacity:1;" d="M 13.710938 13.226562 C 13.753906 13.222656 13.84375 13.21875 13.886719 13.214844 C 13.945312 13.210938 14.0625 13.203125 14.121094 13.199219 C 14.148438 13.230469 14.207031 13.289062 14.234375 13.320312 L 14.171875 13.414062 C 14.019531 13.507812 13.867188 13.601562 13.71875 13.703125 C 13.699219 13.652344 13.664062 13.554688 13.644531 13.503906 C 13.664062 13.4375 13.695312 13.296875 13.710938 13.226562 Z M 13.710938 13.226562 "/>
<path style=" stroke:none;fill-rule:nonzero;fill:rgb(0.392157%,2.352941%,2.352941%);fill-opacity:1;" d="M 11.6875 14.890625 C 12.175781 14.578125 12.714844 14.328125 13.132812 13.914062 C 12.949219 14.148438 12.765625 14.382812 12.558594 14.597656 C 12.421875 14.671875 12.277344 14.738281 12.132812 14.789062 C 11.96875 14.84375 11.804688 14.890625 11.640625 14.941406 C 11.375 14.988281 11.070312 15.046875 10.867188 14.816406 L 11.011719 14.734375 C 11.042969 14.71875 11.097656 14.6875 11.128906 14.667969 C 11.183594 14.539062 11.230469 14.40625 11.273438 14.269531 C 11.375 14.5 11.535156 14.695312 11.6875 14.890625 Z M 11.6875 14.890625 "/>
<path style=" stroke:none;fill-rule:nonzero;fill:rgb(0.392157%,2.352941%,2.352941%);fill-opacity:1;" d="M 12.339844 18.085938 C 12.386719 18.117188 12.480469 18.1875 12.527344 18.222656 L 12.570312 18.414062 C 12.703125 18.328125 12.828125 18.230469 12.960938 18.140625 L 12.949219 18.265625 C 12.960938 18.359375 12.929688 18.425781 12.855469 18.46875 C 12.59375 18.613281 12.449219 18.882812 12.316406 19.144531 C 12.210938 19.007812 12.105469 18.875 12 18.738281 C 12.066406 18.496094 12.195312 18.285156 12.339844 18.085938 Z M 12.339844 18.085938 "/>
<path style=" stroke:none;fill-rule:nonzero;fill:rgb(74.901961%,86.27451%,88.627451%);fill-opacity:1;" d="M 9.054688 10.289062 C 9.105469 10.390625 9.15625 10.488281 9.207031 10.589844 C 9.597656 10.582031 9.984375 10.5625 10.371094 10.535156 C 10.230469 10.65625 10.09375 10.777344 9.957031 10.902344 C 10.046875 10.96875 10.136719 11.035156 10.230469 11.097656 C 10.207031 11.3125 10.207031 11.527344 10.203125 11.742188 L 10.039062 11.777344 C 10.015625 11.523438 10.023438 11.265625 10.035156 11.007812 C 9.851562 10.796875 9.617188 10.667969 9.339844 10.640625 C 9.527344 11.046875 9.679688 11.472656 9.714844 11.925781 C 9.597656 12.019531 9.46875 12.097656 9.339844 12.183594 C 9.273438 11.546875 9.300781 10.894531 9.054688 10.289062 Z M 9.054688 10.289062 "/>
<path style=" stroke:none;fill-rule:nonzero;fill:rgb(74.901961%,86.27451%,88.627451%);fill-opacity:1;" d="M 9.316406 12.53125 C 9.390625 12.433594 9.46875 12.335938 9.546875 12.242188 C 9.859375 12.371094 10.179688 12.582031 10.296875 12.929688 C 10.148438 12.949219 10 12.964844 9.851562 12.980469 C 9.632812 12.886719 9.484375 12.691406 9.316406 12.53125 Z M 9.316406 12.53125 "/>
<path style=" stroke:none;fill-rule:nonzero;fill:rgb(74.901961%,86.27451%,88.627451%);fill-opacity:1;" d="M 10.921875 12.65625 C 11.25 12.632812 11.558594 12.527344 11.878906 12.464844 C 12.238281 12.664062 12.554688 12.933594 12.875 13.195312 L 12.941406 13.257812 C 13.027344 13.078125 13.105469 12.894531 13.1875 12.714844 C 13.070312 13.113281 13.394531 13.558594 13.132812 13.914062 C 12.714844 14.328125 12.175781 14.578125 11.6875 14.890625 C 11.535156 14.695312 11.375 14.5 11.273438 14.269531 C 11.25 13.929688 11.203125 13.589844 11.148438 13.25 C 11.332031 13.320312 11.511719 13.394531 11.699219 13.464844 C 12.011719 13.496094 12.324219 13.453125 12.640625 13.421875 C 12.363281 13.34375 12.085938 13.285156 11.796875 13.265625 C 11.421875 13.242188 11.015625 13.179688 10.769531 12.851562 C 10.828125 13.207031 10.863281 13.5625 10.960938 13.910156 C 10.996094 14.019531 11.039062 14.128906 11.082031 14.238281 C 11.070312 14.40625 11.050781 14.574219 11.011719 14.734375 L 10.867188 14.816406 L 10.785156 14.75 C 10.761719 14.703125 10.722656 14.613281 10.699219 14.566406 C 10.660156 14.402344 10.546875 14.28125 10.398438 14.21875 C 10.167969 14.003906 10.101562 13.574219 10.28125 13.296875 C 10.324219 13.230469 10.363281 13.160156 10.40625 13.09375 C 10.535156 12.898438 10.65625 12.652344 10.921875 12.65625 Z M 10.921875 12.65625 "/>
<path style=" stroke:none;fill-rule:nonzero;fill:rgb(74.901961%,86.27451%,88.627451%);fill-opacity:1;" d="M 14.398438 14.042969 C 14.621094 13.914062 14.664062 14.378906 14.449219 14.398438 C 14.289062 14.378906 14.296875 14.128906 14.398438 14.042969 Z M 14.398438 14.042969 "/>
<path style=" stroke:none;fill-rule:nonzero;fill:rgb(74.901961%,86.27451%,88.627451%);fill-opacity:1;" d="M 15.269531 15.753906 C 15.300781 15.742188 15.359375 15.71875 15.386719 15.707031 C 15.308594 15.878906 15.222656 16.050781 15.136719 16.222656 C 15.070312 16.175781 14.941406 16.078125 14.878906 16.03125 C 14.730469 16.144531 14.585938 16.261719 14.441406 16.375 C 14.394531 16.378906 14.300781 16.382812 14.257812 16.386719 C 14.234375 16.269531 14.1875 16.042969 14.164062 15.929688 C 14.234375 15.960938 14.300781 15.996094 14.363281 16.035156 C 14.464844 16.03125 14.566406 16.027344 14.664062 16.019531 C 14.847656 15.886719 15.058594 15.820312 15.269531 15.753906 Z M 15.269531 15.753906 "/>
<path style=" stroke:none;fill-rule:nonzero;fill:rgb(74.901961%,86.27451%,88.627451%);fill-opacity:1;" d="M 12.6875 16.042969 C 12.773438 15.988281 12.863281 15.933594 12.949219 15.875 C 12.964844 16.203125 12.824219 16.492188 12.5625 16.6875 C 12.597656 16.46875 12.640625 16.257812 12.6875 16.042969 Z M 12.6875 16.042969 "/>
<path style=" stroke:none;fill-rule:nonzero;fill:rgb(74.901961%,86.27451%,88.627451%);fill-opacity:1;" d="M 10.128906 16.894531 C 10.378906 16.832031 10.628906 16.78125 10.878906 16.734375 C 10.738281 16.921875 10.59375 17.109375 10.441406 17.285156 C 10.148438 17.390625 9.863281 17.507812 9.570312 17.605469 C 9.589844 17.488281 9.609375 17.375 9.628906 17.261719 C 9.835938 17.210938 9.988281 17.050781 10.128906 16.894531 Z M 10.128906 16.894531 "/>
<path style=" stroke:none;fill-rule:nonzero;fill:rgb(74.901961%,86.27451%,88.627451%);fill-opacity:1;" d="M 7.589844 18 C 7.925781 17.707031 8.289062 17.441406 8.679688 17.234375 C 8.683594 17.300781 8.6875 17.433594 8.6875 17.496094 C 8.515625 17.558594 8.429688 17.75 8.472656 17.929688 C 8.40625 17.957031 8.273438 18.011719 8.207031 18.039062 C 8 18.035156 7.796875 18.015625 7.589844 18 Z M 7.589844 18 "/>
</g>
</svg>
